<mxfile host="Electron" modified="2024-01-18T13:57:26.311Z" agent="Mozilla/5.0 (Windows NT 10.0; Win64; x64) AppleWebKit/537.36 (KHTML, like Gecko) draw.io/22.1.18 Chrome/120.0.6099.199 Electron/28.1.2 Safari/537.36" etag="Jv7yEPaDOLdgyV61HwMy" version="22.1.18" type="device">
  <diagram id="6a731a19-8d31-9384-78a2-239565b7b9f0" name="Page-1">
    <mxGraphModel dx="2989" dy="1757" grid="1" gridSize="10" guides="1" tooltips="1" connect="1" arrows="1" fold="1" page="1" pageScale="1" pageWidth="1169" pageHeight="827" background="none" math="0" shadow="1">
      <root>
        <mxCell id="0" />
        <mxCell id="1" parent="0" />
        <mxCell id="1764" value="Por que Gestão de Projetos em TI?" style="rounded=1;whiteSpace=wrap;html=1;shadow=1;labelBackgroundColor=none;strokeColor=none;strokeWidth=3;fillColor=#F08705;fontFamily=Helvetica;fontSize=14;fontColor=#FFFFFF;align=center;spacing=5;fontStyle=1;arcSize=7;perimeterSpacing=2;" parent="1" vertex="1">
          <mxGeometry x="-266" y="-619.5" width="150" height="60" as="geometry" />
        </mxCell>
        <mxCell id="1765" value="Entendimento dos negócio e suas restrições de tempo, escopo e custos" style="rounded=1;whiteSpace=wrap;html=1;shadow=1;labelBackgroundColor=none;strokeColor=none;strokeWidth=3;fillColor=#f5af58;fontFamily=Helvetica;fontSize=14;fontColor=#FFFFFF;align=center;spacing=5;arcSize=7;perimeterSpacing=2;" parent="1" vertex="1">
          <mxGeometry x="-266" y="-799.5" width="150" height="90" as="geometry" />
        </mxCell>
        <mxCell id="1766" value="" style="edgeStyle=none;rounded=0;jumpStyle=none;html=1;shadow=1;labelBackgroundColor=none;startArrow=none;startFill=0;endArrow=classic;endFill=1;jettySize=auto;orthogonalLoop=1;strokeColor=#F08705;strokeWidth=3;fontFamily=Helvetica;fontSize=14;fontColor=#FFFFFF;spacing=5;" parent="1" source="1764" target="1765" edge="1">
          <mxGeometry relative="1" as="geometry" />
        </mxCell>
        <mxCell id="1767" value="Coordenação e execução de atividades que entreguem valor ao cliente" style="rounded=1;whiteSpace=wrap;html=1;shadow=1;labelBackgroundColor=none;strokeColor=none;strokeWidth=3;fillColor=#f5af58;fontFamily=Helvetica;fontSize=14;fontColor=#FFFFFF;align=center;spacing=5;arcSize=7;perimeterSpacing=2;" parent="1" vertex="1">
          <mxGeometry x="-431" y="-799.5" width="150" height="90" as="geometry" />
        </mxCell>
        <mxCell id="1768" value="" style="edgeStyle=none;rounded=0;jumpStyle=none;html=1;shadow=1;labelBackgroundColor=none;startArrow=none;startFill=0;endArrow=classic;endFill=1;jettySize=auto;orthogonalLoop=1;strokeColor=#F08705;strokeWidth=3;fontFamily=Helvetica;fontSize=14;fontColor=#FFFFFF;spacing=5;" parent="1" source="1764" target="1767" edge="1">
          <mxGeometry relative="1" as="geometry" />
        </mxCell>
        <mxCell id="1770" value="" style="edgeStyle=none;rounded=0;jumpStyle=none;html=1;shadow=1;labelBackgroundColor=none;startArrow=none;startFill=0;endArrow=classic;endFill=1;jettySize=auto;orthogonalLoop=1;strokeColor=#F08705;strokeWidth=3;fontFamily=Helvetica;fontSize=14;fontColor=#FFFFFF;spacing=5;entryX=1;entryY=0.5;entryDx=0;entryDy=0;" parent="1" source="1764" target="CjOY5OqXpWPELGiu66PR-1822" edge="1">
          <mxGeometry relative="1" as="geometry" />
        </mxCell>
        <mxCell id="CjOY5OqXpWPELGiu66PR-1823" value="" style="group;shadow=1;" vertex="1" connectable="0" parent="1">
          <mxGeometry x="-760.75" y="-659.5" width="380" height="270" as="geometry" />
        </mxCell>
        <mxCell id="1769" value="A TI está em toda parte" style="rounded=1;whiteSpace=wrap;html=1;shadow=1;labelBackgroundColor=none;strokeColor=none;strokeWidth=3;fillColor=#f5af58;fontFamily=Helvetica;fontSize=14;fontColor=#FFFFFF;align=center;spacing=5;arcSize=7;perimeterSpacing=2;" parent="CjOY5OqXpWPELGiu66PR-1823" vertex="1">
          <mxGeometry x="195.25" y="195" width="150" height="60" as="geometry" />
        </mxCell>
        <mxCell id="CjOY5OqXpWPELGiu66PR-1817" value="Rápida evolução dos produtos" style="rounded=1;whiteSpace=wrap;html=1;shadow=1;labelBackgroundColor=none;strokeColor=none;strokeWidth=3;fillColor=#f5af58;fontFamily=Helvetica;fontSize=14;fontColor=#FFFFFF;align=center;spacing=5;arcSize=7;perimeterSpacing=2;" vertex="1" parent="CjOY5OqXpWPELGiu66PR-1823">
          <mxGeometry x="195.25" y="105" width="150" height="60" as="geometry" />
        </mxCell>
        <mxCell id="CjOY5OqXpWPELGiu66PR-1818" value="Competitividade Global" style="rounded=1;whiteSpace=wrap;html=1;shadow=1;labelBackgroundColor=none;strokeColor=none;strokeWidth=3;fillColor=#f5af58;fontFamily=Helvetica;fontSize=14;fontColor=#FFFFFF;align=center;spacing=5;arcSize=7;perimeterSpacing=2;" vertex="1" parent="CjOY5OqXpWPELGiu66PR-1823">
          <mxGeometry x="195.25" y="15" width="150" height="60" as="geometry" />
        </mxCell>
        <mxCell id="CjOY5OqXpWPELGiu66PR-1819" value="Exigencia de Qualidade de Produtos e Serviços" style="rounded=1;whiteSpace=wrap;html=1;shadow=1;labelBackgroundColor=none;strokeColor=none;strokeWidth=3;fillColor=#f5af58;fontFamily=Helvetica;fontSize=14;fontColor=#FFFFFF;align=center;spacing=5;arcSize=7;perimeterSpacing=2;" vertex="1" parent="CjOY5OqXpWPELGiu66PR-1823">
          <mxGeometry x="20" y="195" width="150" height="60" as="geometry" />
        </mxCell>
        <mxCell id="CjOY5OqXpWPELGiu66PR-1820" value="Eficiencia Corporativa" style="rounded=1;whiteSpace=wrap;html=1;shadow=1;labelBackgroundColor=none;strokeColor=none;strokeWidth=3;fillColor=#f5af58;fontFamily=Helvetica;fontSize=14;fontColor=#FFFFFF;align=center;spacing=5;arcSize=7;perimeterSpacing=2;" vertex="1" parent="CjOY5OqXpWPELGiu66PR-1823">
          <mxGeometry x="20" y="105" width="150" height="60" as="geometry" />
        </mxCell>
        <mxCell id="CjOY5OqXpWPELGiu66PR-1821" value="Foco no Consumidor" style="rounded=1;whiteSpace=wrap;html=1;shadow=1;labelBackgroundColor=none;strokeColor=none;strokeWidth=3;fillColor=#f5af58;fontFamily=Helvetica;fontSize=14;fontColor=#FFFFFF;align=center;spacing=5;arcSize=7;perimeterSpacing=2;" vertex="1" parent="CjOY5OqXpWPELGiu66PR-1823">
          <mxGeometry x="20" y="15" width="150" height="60" as="geometry" />
        </mxCell>
        <mxCell id="CjOY5OqXpWPELGiu66PR-1822" value="" style="rounded=1;whiteSpace=wrap;html=1;fontFamily=Helvetica;fontSize=14;fontColor=#FFFFFF;fillColor=none;strokeColor=#FFD966;strokeWidth=5;shadow=1;" vertex="1" parent="CjOY5OqXpWPELGiu66PR-1823">
          <mxGeometry width="380" height="270" as="geometry" />
        </mxCell>
        <mxCell id="CjOY5OqXpWPELGiu66PR-1826" value="Métodos, técnicas e ferramentas que garantam a qualidade de produtos e processos" style="rounded=1;whiteSpace=wrap;html=1;shadow=1;labelBackgroundColor=none;strokeColor=none;strokeWidth=3;fillColor=#f5af58;fontFamily=Helvetica;fontSize=14;fontColor=#FFFFFF;align=center;spacing=5;arcSize=7;perimeterSpacing=2;" vertex="1" parent="1">
          <mxGeometry x="-101" y="-799.5" width="150" height="90" as="geometry" />
        </mxCell>
        <mxCell id="CjOY5OqXpWPELGiu66PR-1827" style="edgeStyle=none;shape=connector;rounded=0;jumpStyle=none;orthogonalLoop=1;jettySize=auto;html=1;shadow=1;labelBackgroundColor=none;strokeColor=#F08705;strokeWidth=3;align=center;verticalAlign=middle;spacing=5;fontFamily=Helvetica;fontSize=14;fontColor=#FFFFFF;startArrow=none;startFill=0;endArrow=classic;fillColor=#b0e3e6;endFill=1;" edge="1" parent="1" source="1764" target="CjOY5OqXpWPELGiu66PR-1826">
          <mxGeometry relative="1" as="geometry" />
        </mxCell>
        <mxCell id="CjOY5OqXpWPELGiu66PR-1829" value="" style="group;shadow=1;" vertex="1" connectable="0" parent="1">
          <mxGeometry x="114" y="-800" width="990" height="590" as="geometry" />
        </mxCell>
        <mxCell id="1771" value="Elaboração Progressiva" style="rounded=1;whiteSpace=wrap;html=1;shadow=1;labelBackgroundColor=none;strokeColor=default;strokeWidth=1;fillColor=#6d8764;fontFamily=Helvetica;fontSize=14;align=center;spacing=5;fontStyle=1;arcSize=7;perimeterSpacing=2;fontColor=#ffffff;" parent="CjOY5OqXpWPELGiu66PR-1829" vertex="1">
          <mxGeometry x="200" y="134.9999999999999" width="150" height="60" as="geometry" />
        </mxCell>
        <mxCell id="1772" value="Iniciar" style="rounded=1;whiteSpace=wrap;html=1;shadow=1;labelBackgroundColor=none;strokeColor=default;strokeWidth=1;fillColor=#6d8764;fontFamily=Helvetica;fontSize=14;align=center;spacing=5;fontStyle=0;arcSize=7;perimeterSpacing=2;fontColor=#ffffff;" parent="CjOY5OqXpWPELGiu66PR-1829" vertex="1">
          <mxGeometry x="600" y="135" width="150" height="60" as="geometry" />
        </mxCell>
        <mxCell id="1773" value="" style="edgeStyle=orthogonalEdgeStyle;rounded=1;jumpStyle=none;html=1;shadow=1;labelBackgroundColor=none;startArrow=none;startFill=0;jettySize=auto;orthogonalLoop=1;strokeColor=#97D077;strokeWidth=3;fontFamily=Helvetica;fontSize=14;fontColor=#FFFFFF;spacing=5;fontStyle=1;fillColor=#6d8764;curved=1;exitX=1;exitY=0.5;exitDx=0;exitDy=0;" parent="CjOY5OqXpWPELGiu66PR-1829" source="1771" target="1772" edge="1">
          <mxGeometry relative="1" as="geometry">
            <mxPoint x="422" y="130.50000000000023" as="sourcePoint" />
          </mxGeometry>
        </mxCell>
        <mxCell id="1774" value="Planejar" style="rounded=1;whiteSpace=wrap;html=1;shadow=1;labelBackgroundColor=none;strokeColor=default;strokeWidth=1;fillColor=#6d8764;fontFamily=Helvetica;fontSize=14;align=center;spacing=5;fontStyle=0;arcSize=7;perimeterSpacing=2;fontColor=#ffffff;" parent="CjOY5OqXpWPELGiu66PR-1829" vertex="1">
          <mxGeometry x="840" y="265" width="150" height="60" as="geometry" />
        </mxCell>
        <mxCell id="CjOY5OqXpWPELGiu66PR-1795" style="edgeStyle=orthogonalEdgeStyle;shape=connector;rounded=1;jumpStyle=none;orthogonalLoop=1;jettySize=auto;html=1;shadow=1;labelBackgroundColor=none;strokeColor=#97D077;strokeWidth=3;align=center;verticalAlign=middle;spacing=5;fontFamily=Helvetica;fontSize=14;fontColor=#FFFFFF;startArrow=none;startFill=0;endArrow=classic;fillColor=#6d8764;exitX=1;exitY=0.5;exitDx=0;exitDy=0;curved=1;" edge="1" parent="CjOY5OqXpWPELGiu66PR-1829" source="1772" target="1774">
          <mxGeometry relative="1" as="geometry" />
        </mxCell>
        <mxCell id="CjOY5OqXpWPELGiu66PR-1796" value="Executar" style="rounded=1;whiteSpace=wrap;html=1;shadow=1;labelBackgroundColor=none;strokeColor=default;strokeWidth=1;fillColor=#6d8764;fontFamily=Helvetica;fontSize=14;align=center;spacing=5;fontStyle=0;arcSize=7;perimeterSpacing=2;glass=0;fontColor=#ffffff;" vertex="1" parent="CjOY5OqXpWPELGiu66PR-1829">
          <mxGeometry x="630" y="405" width="150" height="60" as="geometry" />
        </mxCell>
        <mxCell id="CjOY5OqXpWPELGiu66PR-1805" style="edgeStyle=orthogonalEdgeStyle;shape=connector;curved=1;rounded=1;jumpStyle=none;orthogonalLoop=1;jettySize=auto;html=1;entryX=0;entryY=0;entryDx=0;entryDy=0;shadow=1;labelBackgroundColor=none;strokeColor=#97D077;strokeWidth=3;align=center;verticalAlign=middle;spacing=5;fontFamily=Helvetica;fontSize=14;fontColor=#FFFFFF;startArrow=none;startFill=0;endArrow=classic;fillColor=#6d8764;exitX=0.5;exitY=0;exitDx=0;exitDy=0;" edge="1" parent="CjOY5OqXpWPELGiu66PR-1829" source="CjOY5OqXpWPELGiu66PR-1802" target="1774">
          <mxGeometry relative="1" as="geometry">
            <Array as="points">
              <mxPoint x="525" y="225" />
              <mxPoint x="838" y="225" />
            </Array>
          </mxGeometry>
        </mxCell>
        <mxCell id="CjOY5OqXpWPELGiu66PR-1802" value="Controlar" style="rounded=1;whiteSpace=wrap;html=1;shadow=1;labelBackgroundColor=none;strokeColor=default;strokeWidth=1;fillColor=#6d8764;fontFamily=Helvetica;fontSize=14;align=center;spacing=5;fontStyle=0;arcSize=7;perimeterSpacing=2;glass=0;fontColor=#ffffff;" vertex="1" parent="CjOY5OqXpWPELGiu66PR-1829">
          <mxGeometry x="450" y="275" width="150" height="60" as="geometry" />
        </mxCell>
        <mxCell id="CjOY5OqXpWPELGiu66PR-1803" value="" style="edgeStyle=orthogonalEdgeStyle;shape=connector;curved=1;rounded=1;jumpStyle=none;orthogonalLoop=1;jettySize=auto;html=1;shadow=1;labelBackgroundColor=none;strokeColor=#97D077;strokeWidth=3;align=center;verticalAlign=middle;spacing=5;fontFamily=Helvetica;fontSize=14;fontColor=#FFFFFF;startArrow=none;startFill=0;endArrow=classic;fillColor=#6d8764;" edge="1" parent="CjOY5OqXpWPELGiu66PR-1829" source="CjOY5OqXpWPELGiu66PR-1796" target="CjOY5OqXpWPELGiu66PR-1802">
          <mxGeometry relative="1" as="geometry" />
        </mxCell>
        <mxCell id="CjOY5OqXpWPELGiu66PR-1804" style="edgeStyle=orthogonalEdgeStyle;shape=connector;curved=1;rounded=1;jumpStyle=none;orthogonalLoop=1;jettySize=auto;html=1;entryX=1.013;entryY=0.625;entryDx=0;entryDy=0;entryPerimeter=0;shadow=1;labelBackgroundColor=none;strokeColor=#97D077;strokeWidth=3;align=center;verticalAlign=middle;spacing=5;fontFamily=Helvetica;fontSize=14;fontColor=#FFFFFF;startArrow=none;startFill=0;endArrow=classic;fillColor=#6d8764;exitX=0.5;exitY=1;exitDx=0;exitDy=0;" edge="1" parent="CjOY5OqXpWPELGiu66PR-1829" source="1774" target="CjOY5OqXpWPELGiu66PR-1796">
          <mxGeometry relative="1" as="geometry">
            <Array as="points">
              <mxPoint x="920" y="327" />
              <mxPoint x="920" y="443" />
            </Array>
          </mxGeometry>
        </mxCell>
        <mxCell id="CjOY5OqXpWPELGiu66PR-1806" value="Finalizar" style="rounded=1;whiteSpace=wrap;html=1;shadow=1;labelBackgroundColor=none;strokeColor=default;strokeWidth=1;fillColor=#6d8764;fontFamily=Helvetica;fontSize=14;align=center;spacing=5;fontStyle=0;arcSize=7;perimeterSpacing=2;glass=0;fontColor=#ffffff;" vertex="1" parent="CjOY5OqXpWPELGiu66PR-1829">
          <mxGeometry x="290" y="435" width="150" height="60" as="geometry" />
        </mxCell>
        <mxCell id="CjOY5OqXpWPELGiu66PR-1807" value="" style="edgeStyle=orthogonalEdgeStyle;shape=connector;curved=1;rounded=1;jumpStyle=none;orthogonalLoop=1;jettySize=auto;html=1;shadow=1;labelBackgroundColor=none;strokeColor=#97D077;strokeWidth=3;align=center;verticalAlign=middle;spacing=5;fontFamily=Helvetica;fontSize=14;fontColor=#FFFFFF;startArrow=none;startFill=0;endArrow=classic;fillColor=#6d8764;" edge="1" parent="CjOY5OqXpWPELGiu66PR-1829" source="CjOY5OqXpWPELGiu66PR-1802" target="CjOY5OqXpWPELGiu66PR-1806">
          <mxGeometry relative="1" as="geometry" />
        </mxCell>
        <mxCell id="CjOY5OqXpWPELGiu66PR-1808" value="É abrangente no início e vai sendo detalhada com o passar do tempo" style="rounded=1;whiteSpace=wrap;html=1;shadow=1;labelBackgroundColor=none;strokeColor=default;strokeWidth=1;fillColor=#6d8764;fontFamily=Helvetica;fontSize=14;align=center;spacing=5;fontStyle=0;arcSize=7;perimeterSpacing=2;fontColor=#ffffff;" vertex="1" parent="CjOY5OqXpWPELGiu66PR-1829">
          <mxGeometry width="150" height="80" as="geometry" />
        </mxCell>
        <mxCell id="CjOY5OqXpWPELGiu66PR-1809" value="" style="shape=connector;rounded=1;jumpStyle=none;orthogonalLoop=1;jettySize=auto;html=1;shadow=1;labelBackgroundColor=none;strokeColor=#97D077;strokeWidth=3;align=center;verticalAlign=middle;spacing=5;fontFamily=Helvetica;fontSize=14;fontColor=#FFFFFF;startArrow=none;startFill=0;endArrow=classic;fillColor=#6d8764;" edge="1" parent="CjOY5OqXpWPELGiu66PR-1829" source="1771" target="CjOY5OqXpWPELGiu66PR-1808">
          <mxGeometry relative="1" as="geometry" />
        </mxCell>
        <mxCell id="CjOY5OqXpWPELGiu66PR-1811" value="É Progressiva pois é executada através de passos" style="rounded=1;whiteSpace=wrap;html=1;shadow=1;labelBackgroundColor=none;strokeColor=default;strokeWidth=1;fillColor=#6d8764;fontFamily=Helvetica;fontSize=14;align=center;spacing=5;fontStyle=0;arcSize=7;perimeterSpacing=2;fontColor=#ffffff;" vertex="1" parent="CjOY5OqXpWPELGiu66PR-1829">
          <mxGeometry x="200" width="150" height="80" as="geometry" />
        </mxCell>
        <mxCell id="CjOY5OqXpWPELGiu66PR-1813" value="Não deve ser confundida com aumento do escopo" style="rounded=1;whiteSpace=wrap;html=1;shadow=1;labelBackgroundColor=none;strokeColor=default;strokeWidth=1;fillColor=#6d8764;fontFamily=Helvetica;fontSize=14;align=center;spacing=5;fontStyle=0;arcSize=7;perimeterSpacing=2;fontColor=#ffffff;" vertex="1" parent="CjOY5OqXpWPELGiu66PR-1829">
          <mxGeometry x="400" width="150" height="80" as="geometry" />
        </mxCell>
        <mxCell id="CjOY5OqXpWPELGiu66PR-1810" style="edgeStyle=none;shape=connector;rounded=1;jumpStyle=none;orthogonalLoop=1;jettySize=auto;html=1;shadow=1;labelBackgroundColor=none;strokeColor=#97D077;strokeWidth=3;align=center;verticalAlign=middle;spacing=5;fontFamily=Helvetica;fontSize=14;fontColor=#FFFFFF;startArrow=none;startFill=0;endArrow=classic;fillColor=#6d8764;" edge="1" parent="CjOY5OqXpWPELGiu66PR-1829" source="1771" target="CjOY5OqXpWPELGiu66PR-1811">
          <mxGeometry relative="1" as="geometry">
            <mxPoint x="530" y="80" as="targetPoint" />
          </mxGeometry>
        </mxCell>
        <mxCell id="CjOY5OqXpWPELGiu66PR-1814" style="edgeStyle=none;shape=connector;rounded=1;jumpStyle=none;orthogonalLoop=1;jettySize=auto;html=1;shadow=1;labelBackgroundColor=none;strokeColor=#97D077;strokeWidth=3;align=center;verticalAlign=middle;spacing=5;fontFamily=Helvetica;fontSize=14;fontColor=#FFFFFF;startArrow=none;startFill=0;endArrow=classic;fillColor=#6d8764;" edge="1" parent="CjOY5OqXpWPELGiu66PR-1829" source="1771" target="CjOY5OqXpWPELGiu66PR-1813">
          <mxGeometry relative="1" as="geometry" />
        </mxCell>
        <mxCell id="1749" value="&lt;font style=&quot;font-size: 40px;&quot;&gt;Gerencia de Projetos&lt;/font&gt;" style="rounded=1;whiteSpace=wrap;html=1;shadow=1;labelBackgroundColor=none;strokeColor=none;strokeWidth=3;fillColor=#2F5B7C;fontFamily=Helvetica;fontSize=16;fontColor=#FFFFFF;align=center;fontStyle=1;spacing=5;arcSize=7;perimeterSpacing=2;" parent="CjOY5OqXpWPELGiu66PR-1829" vertex="1">
          <mxGeometry x="-180" y="350" width="330" height="209.5" as="geometry" />
        </mxCell>
        <mxCell id="1746" value="" style="edgeStyle=none;rounded=0;jumpStyle=none;html=1;shadow=1;labelBackgroundColor=none;startArrow=none;startFill=0;endArrow=classic;endFill=1;jettySize=auto;orthogonalLoop=1;strokeColor=#2F5B7C;strokeWidth=3;fontFamily=Helvetica;fontSize=16;fontColor=#23445D;spacing=5;" parent="CjOY5OqXpWPELGiu66PR-1829" source="1749" target="1771" edge="1">
          <mxGeometry relative="1" as="geometry" />
        </mxCell>
        <mxCell id="1745" value="" style="edgeStyle=none;rounded=0;jumpStyle=none;html=1;shadow=1;labelBackgroundColor=none;startArrow=none;startFill=0;endArrow=classic;endFill=1;jettySize=auto;orthogonalLoop=1;strokeColor=#2F5B7C;strokeWidth=3;fontFamily=Helvetica;fontSize=16;fontColor=#23445D;spacing=5;" parent="1" source="1749" target="1764" edge="1">
          <mxGeometry relative="1" as="geometry" />
        </mxCell>
        <mxCell id="CjOY5OqXpWPELGiu66PR-1841" value="" style="group" vertex="1" connectable="0" parent="1">
          <mxGeometry x="524" y="-269.5" width="410" height="255" as="geometry" />
        </mxCell>
        <mxCell id="CjOY5OqXpWPELGiu66PR-1830" value="Operações" style="rounded=1;whiteSpace=wrap;html=1;shadow=1;labelBackgroundColor=none;strokeColor=#314354;strokeWidth=1;fillColor=#647687;fontFamily=Helvetica;fontSize=14;fontColor=#ffffff;align=center;spacing=5;fontStyle=1;arcSize=7;perimeterSpacing=2;" vertex="1" parent="CjOY5OqXpWPELGiu66PR-1841">
          <mxGeometry y="44.999999999999886" width="150" height="60" as="geometry" />
        </mxCell>
        <mxCell id="CjOY5OqXpWPELGiu66PR-1832" value="Diferentemente dos projetos, são contínuas" style="rounded=1;whiteSpace=wrap;html=1;shadow=1;labelBackgroundColor=none;strokeColor=#314354;strokeWidth=1;fillColor=#647687;fontFamily=Helvetica;fontSize=14;fontColor=#ffffff;align=center;spacing=5;fontStyle=0;arcSize=7;perimeterSpacing=2;glass=0;" vertex="1" parent="CjOY5OqXpWPELGiu66PR-1841">
          <mxGeometry y="195" width="150" height="60" as="geometry" />
        </mxCell>
        <mxCell id="CjOY5OqXpWPELGiu66PR-1835" style="edgeStyle=none;shape=connector;rounded=1;jumpStyle=none;orthogonalLoop=1;jettySize=auto;html=1;shadow=1;labelBackgroundColor=none;strokeColor=#314354;strokeWidth=3;align=center;verticalAlign=middle;spacing=5;fontFamily=Helvetica;fontSize=14;fontColor=#FFFFFF;startArrow=none;startFill=0;endArrow=classic;fillColor=#647687;" edge="1" parent="CjOY5OqXpWPELGiu66PR-1841" source="CjOY5OqXpWPELGiu66PR-1830" target="CjOY5OqXpWPELGiu66PR-1832">
          <mxGeometry relative="1" as="geometry" />
        </mxCell>
        <mxCell id="CjOY5OqXpWPELGiu66PR-1836" value="Objetivo que pode ser medido de forma qualitativa e financeira" style="rounded=1;whiteSpace=wrap;html=1;shadow=1;labelBackgroundColor=none;strokeColor=#314354;strokeWidth=1;fillColor=#647687;fontFamily=Helvetica;fontSize=14;fontColor=#ffffff;align=center;spacing=5;fontStyle=0;arcSize=7;perimeterSpacing=2;glass=0;" vertex="1" parent="CjOY5OqXpWPELGiu66PR-1841">
          <mxGeometry x="190" y="195" width="150" height="60" as="geometry" />
        </mxCell>
        <mxCell id="CjOY5OqXpWPELGiu66PR-1837" style="edgeStyle=none;shape=connector;rounded=1;jumpStyle=none;orthogonalLoop=1;jettySize=auto;html=1;shadow=1;labelBackgroundColor=none;strokeColor=#314354;strokeWidth=3;align=center;verticalAlign=middle;spacing=5;fontFamily=Helvetica;fontSize=14;fontColor=#FFFFFF;startArrow=none;startFill=0;endArrow=classic;fillColor=#647687;" edge="1" parent="CjOY5OqXpWPELGiu66PR-1841" source="CjOY5OqXpWPELGiu66PR-1830" target="CjOY5OqXpWPELGiu66PR-1836">
          <mxGeometry relative="1" as="geometry" />
        </mxCell>
        <mxCell id="CjOY5OqXpWPELGiu66PR-1838" value="&lt;b&gt;Exemplos&lt;/b&gt;&lt;br&gt;&lt;ul&gt;&lt;li&gt;Administração de Recursos Humanos&lt;/li&gt;&lt;li&gt;Compras&lt;/li&gt;&lt;li&gt;Contabilidade&lt;/li&gt;&lt;li&gt;Contratos&lt;/li&gt;&lt;/ul&gt;" style="rounded=1;whiteSpace=wrap;html=1;shadow=1;labelBackgroundColor=none;strokeColor=#314354;strokeWidth=1;fillColor=#647687;fontFamily=Helvetica;fontSize=14;fontColor=#ffffff;align=center;spacing=5;fontStyle=0;arcSize=7;perimeterSpacing=2;glass=0;" vertex="1" parent="CjOY5OqXpWPELGiu66PR-1841">
          <mxGeometry x="220" width="190" height="150" as="geometry" />
        </mxCell>
        <mxCell id="CjOY5OqXpWPELGiu66PR-1839" style="edgeStyle=none;shape=connector;rounded=1;jumpStyle=none;orthogonalLoop=1;jettySize=auto;html=1;shadow=1;labelBackgroundColor=none;strokeColor=#314354;strokeWidth=3;align=center;verticalAlign=middle;spacing=5;fontFamily=Helvetica;fontSize=14;fontColor=#FFFFFF;startArrow=none;startFill=0;endArrow=classic;fillColor=#647687;" edge="1" parent="CjOY5OqXpWPELGiu66PR-1841" source="CjOY5OqXpWPELGiu66PR-1830" target="CjOY5OqXpWPELGiu66PR-1838">
          <mxGeometry relative="1" as="geometry" />
        </mxCell>
        <mxCell id="CjOY5OqXpWPELGiu66PR-1831" style="edgeStyle=none;shape=connector;rounded=0;jumpStyle=none;orthogonalLoop=1;jettySize=auto;html=1;shadow=1;labelBackgroundColor=none;strokeColor=#2F5B7C;strokeWidth=3;align=center;verticalAlign=middle;spacing=5;fontFamily=Helvetica;fontSize=16;fontColor=#23445D;startArrow=none;startFill=0;endArrow=classic;endFill=1;fillColor=#b0e3e6;" edge="1" parent="1" source="1749" target="CjOY5OqXpWPELGiu66PR-1830">
          <mxGeometry relative="1" as="geometry" />
        </mxCell>
        <mxCell id="CjOY5OqXpWPELGiu66PR-1843" style="rounded=0;orthogonalLoop=1;jettySize=auto;html=1;fontFamily=Helvetica;fontSize=16;fontColor=#23445D;labelBackgroundColor=none;strokeColor=#2F5B7C;shadow=1;strokeWidth=3;spacing=5;startArrow=none;startFill=0;endFill=1;fillColor=#b0e3e6;" edge="1" parent="1" source="1749" target="CjOY5OqXpWPELGiu66PR-1842">
          <mxGeometry relative="1" as="geometry" />
        </mxCell>
        <mxCell id="CjOY5OqXpWPELGiu66PR-1889" value="" style="group" vertex="1" connectable="0" parent="1">
          <mxGeometry x="-36" y="90.5" width="885" height="730" as="geometry" />
        </mxCell>
        <mxCell id="CjOY5OqXpWPELGiu66PR-1842" value="Gerente de Projetos" style="rounded=1;whiteSpace=wrap;html=1;shadow=1;labelBackgroundColor=none;strokeColor=#B20000;strokeWidth=1;fillColor=#e51400;fontFamily=Helvetica;fontSize=14;fontColor=#ffffff;align=center;spacing=5;fontStyle=1;arcSize=7;perimeterSpacing=2;glass=0;" vertex="1" parent="CjOY5OqXpWPELGiu66PR-1889">
          <mxGeometry x="295" y="210" width="150" height="60" as="geometry" />
        </mxCell>
        <mxCell id="CjOY5OqXpWPELGiu66PR-1846" value="&lt;span style=&quot;font-weight: normal;&quot;&gt;Responsável pela supervisão e execução de projetos&lt;/span&gt;" style="rounded=1;whiteSpace=wrap;html=1;shadow=1;labelBackgroundColor=none;strokeColor=#B20000;strokeWidth=1;fillColor=#e51400;fontFamily=Helvetica;fontSize=14;fontColor=#ffffff;align=center;spacing=5;fontStyle=1;arcSize=7;perimeterSpacing=2;glass=0;" vertex="1" parent="CjOY5OqXpWPELGiu66PR-1889">
          <mxGeometry x="15" y="170" width="150" height="60" as="geometry" />
        </mxCell>
        <mxCell id="CjOY5OqXpWPELGiu66PR-1847" value="" style="edgeStyle=none;shape=connector;rounded=0;orthogonalLoop=1;jettySize=auto;html=1;shadow=1;labelBackgroundColor=none;strokeColor=#B20000;strokeWidth=3;align=center;verticalAlign=middle;spacing=5;fontFamily=Helvetica;fontSize=14;fontColor=#FFFFFF;startArrow=none;startFill=0;endArrow=classic;endFill=1;fillColor=#e51400;" edge="1" parent="CjOY5OqXpWPELGiu66PR-1889" source="CjOY5OqXpWPELGiu66PR-1842" target="CjOY5OqXpWPELGiu66PR-1846">
          <mxGeometry relative="1" as="geometry" />
        </mxCell>
        <mxCell id="CjOY5OqXpWPELGiu66PR-1848" value="&lt;span style=&quot;font-weight: normal;&quot;&gt;Líder que coordena equipes para alcançar metas específicas&lt;/span&gt;" style="rounded=1;whiteSpace=wrap;html=1;shadow=1;labelBackgroundColor=none;strokeColor=#B20000;strokeWidth=1;fillColor=#e51400;fontFamily=Helvetica;fontSize=14;fontColor=#ffffff;align=center;spacing=5;fontStyle=1;arcSize=7;perimeterSpacing=2;glass=0;" vertex="1" parent="CjOY5OqXpWPELGiu66PR-1889">
          <mxGeometry x="15" y="250" width="150" height="60" as="geometry" />
        </mxCell>
        <mxCell id="CjOY5OqXpWPELGiu66PR-1849" style="edgeStyle=none;shape=connector;rounded=0;orthogonalLoop=1;jettySize=auto;html=1;shadow=1;labelBackgroundColor=none;strokeColor=#B20000;strokeWidth=3;align=center;verticalAlign=middle;spacing=5;fontFamily=Helvetica;fontSize=14;fontColor=#FFFFFF;startArrow=none;startFill=0;endArrow=classic;endFill=1;fillColor=#e51400;" edge="1" parent="CjOY5OqXpWPELGiu66PR-1889" source="CjOY5OqXpWPELGiu66PR-1842" target="CjOY5OqXpWPELGiu66PR-1848">
          <mxGeometry relative="1" as="geometry" />
        </mxCell>
        <mxCell id="CjOY5OqXpWPELGiu66PR-1850" value="&lt;span style=&quot;font-weight: 400;&quot;&gt;Habilidades&lt;/span&gt;" style="rounded=1;whiteSpace=wrap;html=1;shadow=1;labelBackgroundColor=none;strokeColor=#B20000;strokeWidth=1;fillColor=#e51400;fontFamily=Helvetica;fontSize=14;fontColor=#ffffff;align=center;spacing=5;fontStyle=1;arcSize=7;perimeterSpacing=2;glass=0;" vertex="1" parent="CjOY5OqXpWPELGiu66PR-1889">
          <mxGeometry x="525" y="130" width="150" height="60" as="geometry" />
        </mxCell>
        <mxCell id="CjOY5OqXpWPELGiu66PR-1851" value="" style="edgeStyle=none;shape=connector;rounded=0;orthogonalLoop=1;jettySize=auto;html=1;shadow=1;labelBackgroundColor=none;strokeColor=#B20000;strokeWidth=3;align=center;verticalAlign=middle;spacing=5;fontFamily=Helvetica;fontSize=14;fontColor=#FFFFFF;startArrow=none;startFill=0;endArrow=classic;endFill=1;fillColor=#e51400;" edge="1" parent="CjOY5OqXpWPELGiu66PR-1889" source="CjOY5OqXpWPELGiu66PR-1842" target="CjOY5OqXpWPELGiu66PR-1850">
          <mxGeometry relative="1" as="geometry" />
        </mxCell>
        <mxCell id="CjOY5OqXpWPELGiu66PR-1852" value="Comunicação eficaz" style="rounded=1;whiteSpace=wrap;html=1;shadow=1;labelBackgroundColor=none;strokeColor=#B20000;strokeWidth=1;fillColor=#e51400;fontFamily=Helvetica;fontSize=14;fontColor=#ffffff;align=center;spacing=5;fontStyle=0;arcSize=7;perimeterSpacing=2;glass=0;" vertex="1" parent="CjOY5OqXpWPELGiu66PR-1889">
          <mxGeometry x="385" y="20" width="150" height="60" as="geometry" />
        </mxCell>
        <mxCell id="CjOY5OqXpWPELGiu66PR-1853" value="" style="edgeStyle=none;shape=connector;rounded=0;orthogonalLoop=1;jettySize=auto;html=1;shadow=1;labelBackgroundColor=none;strokeColor=#B20000;strokeWidth=3;align=center;verticalAlign=middle;spacing=5;fontFamily=Helvetica;fontSize=14;fontColor=#FFFFFF;startArrow=none;startFill=0;endArrow=classic;endFill=1;fillColor=#e51400;" edge="1" parent="CjOY5OqXpWPELGiu66PR-1889" source="CjOY5OqXpWPELGiu66PR-1850" target="CjOY5OqXpWPELGiu66PR-1852">
          <mxGeometry relative="1" as="geometry" />
        </mxCell>
        <mxCell id="CjOY5OqXpWPELGiu66PR-1855" value="Tomada de decisões" style="rounded=1;whiteSpace=wrap;html=1;shadow=1;labelBackgroundColor=none;strokeColor=#B20000;strokeWidth=1;fillColor=#e51400;fontFamily=Helvetica;fontSize=14;fontColor=#ffffff;align=center;spacing=5;fontStyle=0;arcSize=7;perimeterSpacing=2;glass=0;" vertex="1" parent="CjOY5OqXpWPELGiu66PR-1889">
          <mxGeometry x="565" width="150" height="60" as="geometry" />
        </mxCell>
        <mxCell id="CjOY5OqXpWPELGiu66PR-1856" value="" style="edgeStyle=none;shape=connector;rounded=0;orthogonalLoop=1;jettySize=auto;html=1;shadow=1;labelBackgroundColor=none;strokeColor=#B20000;strokeWidth=3;align=center;verticalAlign=middle;spacing=5;fontFamily=Helvetica;fontSize=14;fontColor=#FFFFFF;startArrow=none;startFill=0;endArrow=classic;endFill=1;fillColor=#e51400;" edge="1" parent="CjOY5OqXpWPELGiu66PR-1889" source="CjOY5OqXpWPELGiu66PR-1850" target="CjOY5OqXpWPELGiu66PR-1855">
          <mxGeometry relative="1" as="geometry" />
        </mxCell>
        <mxCell id="CjOY5OqXpWPELGiu66PR-1857" value="Liderança" style="rounded=1;whiteSpace=wrap;html=1;shadow=1;labelBackgroundColor=none;strokeColor=#B20000;strokeWidth=1;fillColor=#e51400;fontFamily=Helvetica;fontSize=14;fontColor=#ffffff;align=center;spacing=5;fontStyle=0;arcSize=7;perimeterSpacing=2;glass=0;" vertex="1" parent="CjOY5OqXpWPELGiu66PR-1889">
          <mxGeometry x="735" y="50" width="150" height="60" as="geometry" />
        </mxCell>
        <mxCell id="CjOY5OqXpWPELGiu66PR-1858" value="" style="edgeStyle=none;shape=connector;rounded=0;orthogonalLoop=1;jettySize=auto;html=1;shadow=1;labelBackgroundColor=none;strokeColor=#B20000;strokeWidth=3;align=center;verticalAlign=middle;spacing=5;fontFamily=Helvetica;fontSize=14;fontColor=#FFFFFF;startArrow=none;startFill=0;endArrow=classic;endFill=1;fillColor=#e51400;" edge="1" parent="CjOY5OqXpWPELGiu66PR-1889" source="CjOY5OqXpWPELGiu66PR-1850" target="CjOY5OqXpWPELGiu66PR-1857">
          <mxGeometry relative="1" as="geometry" />
        </mxCell>
        <mxCell id="CjOY5OqXpWPELGiu66PR-1861" value="" style="edgeStyle=none;shape=connector;rounded=0;orthogonalLoop=1;jettySize=auto;html=1;shadow=1;labelBackgroundColor=none;strokeColor=#B20000;strokeWidth=3;align=center;verticalAlign=middle;spacing=5;fontFamily=Helvetica;fontSize=14;fontColor=#FFFFFF;startArrow=none;startFill=0;endArrow=classic;endFill=1;fillColor=#e51400;" edge="1" parent="CjOY5OqXpWPELGiu66PR-1889" source="CjOY5OqXpWPELGiu66PR-1850" target="CjOY5OqXpWPELGiu66PR-1857">
          <mxGeometry relative="1" as="geometry" />
        </mxCell>
        <mxCell id="CjOY5OqXpWPELGiu66PR-1862" value="Gerenciamento de tempo" style="rounded=1;whiteSpace=wrap;html=1;shadow=1;labelBackgroundColor=none;strokeColor=#B20000;strokeWidth=1;fillColor=#e51400;fontFamily=Helvetica;fontSize=14;fontColor=#ffffff;align=center;spacing=5;fontStyle=0;arcSize=7;perimeterSpacing=2;glass=0;" vertex="1" parent="CjOY5OqXpWPELGiu66PR-1889">
          <mxGeometry x="735" y="140" width="150" height="60" as="geometry" />
        </mxCell>
        <mxCell id="CjOY5OqXpWPELGiu66PR-1863" value="" style="edgeStyle=none;shape=connector;rounded=0;orthogonalLoop=1;jettySize=auto;html=1;shadow=1;labelBackgroundColor=none;strokeColor=#B20000;strokeWidth=3;align=center;verticalAlign=middle;spacing=5;fontFamily=Helvetica;fontSize=14;fontColor=#FFFFFF;startArrow=none;startFill=0;endArrow=classic;endFill=1;fillColor=#e51400;" edge="1" parent="CjOY5OqXpWPELGiu66PR-1889" source="CjOY5OqXpWPELGiu66PR-1850" target="CjOY5OqXpWPELGiu66PR-1862">
          <mxGeometry relative="1" as="geometry" />
        </mxCell>
        <mxCell id="CjOY5OqXpWPELGiu66PR-1864" value="Funções" style="rounded=1;whiteSpace=wrap;html=1;shadow=1;labelBackgroundColor=none;strokeColor=#B20000;strokeWidth=1;fillColor=#e51400;fontFamily=Helvetica;fontSize=14;fontColor=#ffffff;align=center;spacing=5;fontStyle=0;arcSize=7;perimeterSpacing=2;glass=0;" vertex="1" parent="CjOY5OqXpWPELGiu66PR-1889">
          <mxGeometry x="270" y="420" width="125" height="60" as="geometry" />
        </mxCell>
        <mxCell id="CjOY5OqXpWPELGiu66PR-1865" style="edgeStyle=none;shape=connector;rounded=0;orthogonalLoop=1;jettySize=auto;html=1;shadow=1;labelBackgroundColor=none;strokeColor=#B20000;strokeWidth=3;align=center;verticalAlign=middle;spacing=5;fontFamily=Helvetica;fontSize=14;fontColor=#FFFFFF;startArrow=none;startFill=0;endArrow=classic;endFill=1;fillColor=#e51400;" edge="1" parent="CjOY5OqXpWPELGiu66PR-1889" source="CjOY5OqXpWPELGiu66PR-1842" target="CjOY5OqXpWPELGiu66PR-1864">
          <mxGeometry relative="1" as="geometry" />
        </mxCell>
        <mxCell id="CjOY5OqXpWPELGiu66PR-1866" value="Coordenar a equipe" style="rounded=1;whiteSpace=wrap;html=1;shadow=1;labelBackgroundColor=none;strokeColor=#B20000;strokeWidth=1;fillColor=#e51400;fontFamily=Helvetica;fontSize=14;fontColor=#ffffff;align=center;spacing=5;fontStyle=0;arcSize=7;perimeterSpacing=2;glass=0;" vertex="1" parent="CjOY5OqXpWPELGiu66PR-1889">
          <mxGeometry y="370" width="125" height="60" as="geometry" />
        </mxCell>
        <mxCell id="CjOY5OqXpWPELGiu66PR-1867" value="" style="edgeStyle=none;shape=connector;rounded=0;orthogonalLoop=1;jettySize=auto;html=1;shadow=1;labelBackgroundColor=none;strokeColor=#B20000;strokeWidth=3;align=center;verticalAlign=middle;spacing=5;fontFamily=Helvetica;fontSize=14;fontColor=#FFFFFF;startArrow=none;startFill=0;endArrow=classic;endFill=1;fillColor=#e51400;" edge="1" parent="CjOY5OqXpWPELGiu66PR-1889" source="CjOY5OqXpWPELGiu66PR-1864" target="CjOY5OqXpWPELGiu66PR-1866">
          <mxGeometry relative="1" as="geometry" />
        </mxCell>
        <mxCell id="CjOY5OqXpWPELGiu66PR-1868" value="Monitorar o progresso" style="rounded=1;whiteSpace=wrap;html=1;shadow=1;labelBackgroundColor=none;strokeColor=#B20000;strokeWidth=1;fillColor=#e51400;fontFamily=Helvetica;fontSize=14;fontColor=#ffffff;align=center;spacing=5;fontStyle=0;arcSize=7;perimeterSpacing=2;glass=0;" vertex="1" parent="CjOY5OqXpWPELGiu66PR-1889">
          <mxGeometry x="15" y="470" width="125" height="60" as="geometry" />
        </mxCell>
        <mxCell id="CjOY5OqXpWPELGiu66PR-1869" value="" style="edgeStyle=none;shape=connector;rounded=0;orthogonalLoop=1;jettySize=auto;html=1;shadow=1;labelBackgroundColor=none;strokeColor=#B20000;strokeWidth=3;align=center;verticalAlign=middle;spacing=5;fontFamily=Helvetica;fontSize=14;fontColor=#FFFFFF;startArrow=none;startFill=0;endArrow=classic;endFill=1;fillColor=#e51400;" edge="1" parent="CjOY5OqXpWPELGiu66PR-1889" source="CjOY5OqXpWPELGiu66PR-1864" target="CjOY5OqXpWPELGiu66PR-1868">
          <mxGeometry relative="1" as="geometry" />
        </mxCell>
        <mxCell id="CjOY5OqXpWPELGiu66PR-1870" value="Resolver problemas" style="rounded=1;whiteSpace=wrap;html=1;shadow=1;labelBackgroundColor=none;strokeColor=#B20000;strokeWidth=1;fillColor=#e51400;fontFamily=Helvetica;fontSize=14;fontColor=#ffffff;align=center;spacing=5;fontStyle=0;arcSize=7;perimeterSpacing=2;glass=0;" vertex="1" parent="CjOY5OqXpWPELGiu66PR-1889">
          <mxGeometry x="45" y="560" width="125" height="60" as="geometry" />
        </mxCell>
        <mxCell id="CjOY5OqXpWPELGiu66PR-1871" value="" style="edgeStyle=none;shape=connector;rounded=0;orthogonalLoop=1;jettySize=auto;html=1;shadow=1;labelBackgroundColor=none;strokeColor=#B20000;strokeWidth=3;align=center;verticalAlign=middle;spacing=5;fontFamily=Helvetica;fontSize=14;fontColor=#FFFFFF;startArrow=none;startFill=0;endArrow=classic;endFill=1;fillColor=#e51400;" edge="1" parent="CjOY5OqXpWPELGiu66PR-1889" source="CjOY5OqXpWPELGiu66PR-1864" target="CjOY5OqXpWPELGiu66PR-1870">
          <mxGeometry relative="1" as="geometry" />
        </mxCell>
        <mxCell id="CjOY5OqXpWPELGiu66PR-1872" value="Acompanhar o desempenho" style="rounded=1;whiteSpace=wrap;html=1;shadow=1;labelBackgroundColor=none;strokeColor=#B20000;strokeWidth=1;fillColor=#e51400;fontFamily=Helvetica;fontSize=14;fontColor=#ffffff;align=center;spacing=5;fontStyle=0;arcSize=7;perimeterSpacing=2;glass=0;" vertex="1" parent="CjOY5OqXpWPELGiu66PR-1889">
          <mxGeometry x="95" y="660" width="125" height="60" as="geometry" />
        </mxCell>
        <mxCell id="CjOY5OqXpWPELGiu66PR-1873" value="" style="edgeStyle=none;shape=connector;rounded=0;orthogonalLoop=1;jettySize=auto;html=1;shadow=1;labelBackgroundColor=none;strokeColor=#B20000;strokeWidth=3;align=center;verticalAlign=middle;spacing=5;fontFamily=Helvetica;fontSize=14;fontColor=#FFFFFF;startArrow=none;startFill=0;endArrow=classic;endFill=1;fillColor=#e51400;" edge="1" parent="CjOY5OqXpWPELGiu66PR-1889" source="CjOY5OqXpWPELGiu66PR-1864" target="CjOY5OqXpWPELGiu66PR-1872">
          <mxGeometry relative="1" as="geometry" />
        </mxCell>
        <mxCell id="CjOY5OqXpWPELGiu66PR-1874" value="Garantir conformidade com o plano" style="rounded=1;whiteSpace=wrap;html=1;shadow=1;labelBackgroundColor=none;strokeColor=#B20000;strokeWidth=1;fillColor=#e51400;fontFamily=Helvetica;fontSize=14;fontColor=#ffffff;align=center;spacing=5;fontStyle=0;arcSize=7;perimeterSpacing=2;glass=0;" vertex="1" parent="CjOY5OqXpWPELGiu66PR-1889">
          <mxGeometry x="245" y="670" width="125" height="60" as="geometry" />
        </mxCell>
        <mxCell id="CjOY5OqXpWPELGiu66PR-1875" value="" style="edgeStyle=none;shape=connector;rounded=0;orthogonalLoop=1;jettySize=auto;html=1;shadow=1;labelBackgroundColor=none;strokeColor=#B20000;strokeWidth=3;align=center;verticalAlign=middle;spacing=5;fontFamily=Helvetica;fontSize=14;fontColor=#FFFFFF;startArrow=none;startFill=0;endArrow=classic;endFill=1;fillColor=#e51400;" edge="1" parent="CjOY5OqXpWPELGiu66PR-1889" source="CjOY5OqXpWPELGiu66PR-1864" target="CjOY5OqXpWPELGiu66PR-1874">
          <mxGeometry relative="1" as="geometry" />
        </mxCell>
        <mxCell id="CjOY5OqXpWPELGiu66PR-1876" value="Manter todas as partes informadas" style="rounded=1;whiteSpace=wrap;html=1;shadow=1;labelBackgroundColor=none;strokeColor=#B20000;strokeWidth=1;fillColor=#e51400;fontFamily=Helvetica;fontSize=14;fontColor=#ffffff;align=center;spacing=5;fontStyle=0;arcSize=7;perimeterSpacing=2;glass=0;" vertex="1" parent="CjOY5OqXpWPELGiu66PR-1889">
          <mxGeometry x="395" y="660" width="125" height="60" as="geometry" />
        </mxCell>
        <mxCell id="CjOY5OqXpWPELGiu66PR-1884" style="edgeStyle=none;shape=connector;rounded=0;orthogonalLoop=1;jettySize=auto;html=1;shadow=1;labelBackgroundColor=none;strokeColor=#B20000;strokeWidth=3;align=center;verticalAlign=middle;spacing=5;fontFamily=Helvetica;fontSize=14;fontColor=#FFFFFF;startArrow=none;startFill=0;endArrow=classic;endFill=1;fillColor=#e51400;" edge="1" parent="CjOY5OqXpWPELGiu66PR-1889" source="CjOY5OqXpWPELGiu66PR-1864" target="CjOY5OqXpWPELGiu66PR-1876">
          <mxGeometry relative="1" as="geometry" />
        </mxCell>
        <mxCell id="CjOY5OqXpWPELGiu66PR-1877" value="Facilitar a colaboração" style="rounded=1;whiteSpace=wrap;html=1;shadow=1;labelBackgroundColor=none;strokeColor=#B20000;strokeWidth=1;fillColor=#e51400;fontFamily=Helvetica;fontSize=14;fontColor=#ffffff;align=center;spacing=5;fontStyle=0;arcSize=7;perimeterSpacing=2;glass=0;" vertex="1" parent="CjOY5OqXpWPELGiu66PR-1889">
          <mxGeometry x="475" y="580" width="125" height="60" as="geometry" />
        </mxCell>
        <mxCell id="CjOY5OqXpWPELGiu66PR-1885" style="edgeStyle=none;shape=connector;rounded=0;orthogonalLoop=1;jettySize=auto;html=1;shadow=1;labelBackgroundColor=none;strokeColor=#B20000;strokeWidth=3;align=center;verticalAlign=middle;spacing=5;fontFamily=Helvetica;fontSize=14;fontColor=#FFFFFF;startArrow=none;startFill=0;endArrow=classic;endFill=1;fillColor=#e51400;" edge="1" parent="CjOY5OqXpWPELGiu66PR-1889" source="CjOY5OqXpWPELGiu66PR-1864" target="CjOY5OqXpWPELGiu66PR-1877">
          <mxGeometry relative="1" as="geometry" />
        </mxCell>
        <mxCell id="CjOY5OqXpWPELGiu66PR-1878" value="Relatar progresso e problemas" style="rounded=1;whiteSpace=wrap;html=1;shadow=1;labelBackgroundColor=none;strokeColor=#B20000;strokeWidth=1;fillColor=#e51400;fontFamily=Helvetica;fontSize=14;fontColor=#ffffff;align=center;spacing=5;fontStyle=0;arcSize=7;perimeterSpacing=2;glass=0;" vertex="1" parent="CjOY5OqXpWPELGiu66PR-1889">
          <mxGeometry x="525" y="500" width="125" height="60" as="geometry" />
        </mxCell>
        <mxCell id="CjOY5OqXpWPELGiu66PR-1886" style="edgeStyle=none;shape=connector;rounded=0;orthogonalLoop=1;jettySize=auto;html=1;shadow=1;labelBackgroundColor=none;strokeColor=#B20000;strokeWidth=3;align=center;verticalAlign=middle;spacing=5;fontFamily=Helvetica;fontSize=14;fontColor=#FFFFFF;startArrow=none;startFill=0;endArrow=classic;endFill=1;fillColor=#e51400;" edge="1" parent="CjOY5OqXpWPELGiu66PR-1889" source="CjOY5OqXpWPELGiu66PR-1864" target="CjOY5OqXpWPELGiu66PR-1878">
          <mxGeometry relative="1" as="geometry" />
        </mxCell>
        <mxCell id="CjOY5OqXpWPELGiu66PR-1880" value="Gerenciar riscos, escopo, tempo e custo" style="rounded=1;whiteSpace=wrap;html=1;shadow=1;labelBackgroundColor=none;strokeColor=#B20000;strokeWidth=1;fillColor=#e51400;fontFamily=Helvetica;fontSize=14;fontColor=#ffffff;align=center;spacing=5;fontStyle=0;arcSize=7;perimeterSpacing=2;glass=0;" vertex="1" parent="CjOY5OqXpWPELGiu66PR-1889">
          <mxGeometry x="545" y="410" width="125" height="60" as="geometry" />
        </mxCell>
        <mxCell id="CjOY5OqXpWPELGiu66PR-1887" style="edgeStyle=none;shape=connector;rounded=0;orthogonalLoop=1;jettySize=auto;html=1;shadow=1;labelBackgroundColor=none;strokeColor=#B20000;strokeWidth=3;align=center;verticalAlign=middle;spacing=5;fontFamily=Helvetica;fontSize=14;fontColor=#FFFFFF;startArrow=none;startFill=0;endArrow=classic;endFill=1;fillColor=#e51400;" edge="1" parent="CjOY5OqXpWPELGiu66PR-1889" source="CjOY5OqXpWPELGiu66PR-1864" target="CjOY5OqXpWPELGiu66PR-1880">
          <mxGeometry relative="1" as="geometry" />
        </mxCell>
        <mxCell id="CjOY5OqXpWPELGiu66PR-1881" value="Aloca recursos" style="rounded=1;whiteSpace=wrap;html=1;shadow=1;labelBackgroundColor=none;strokeColor=#B20000;strokeWidth=1;fillColor=#e51400;fontFamily=Helvetica;fontSize=14;fontColor=#ffffff;align=center;spacing=5;fontStyle=0;arcSize=7;perimeterSpacing=2;glass=0;" vertex="1" parent="CjOY5OqXpWPELGiu66PR-1889">
          <mxGeometry x="485" y="310" width="125" height="60" as="geometry" />
        </mxCell>
        <mxCell id="CjOY5OqXpWPELGiu66PR-1888" style="edgeStyle=none;shape=connector;rounded=0;orthogonalLoop=1;jettySize=auto;html=1;shadow=1;labelBackgroundColor=none;strokeColor=#B20000;strokeWidth=3;align=center;verticalAlign=middle;spacing=5;fontFamily=Helvetica;fontSize=14;fontColor=#FFFFFF;startArrow=none;startFill=0;endArrow=classic;endFill=1;fillColor=#e51400;" edge="1" parent="CjOY5OqXpWPELGiu66PR-1889" source="CjOY5OqXpWPELGiu66PR-1864" target="CjOY5OqXpWPELGiu66PR-1881">
          <mxGeometry relative="1" as="geometry" />
        </mxCell>
        <mxCell id="CjOY5OqXpWPELGiu66PR-1891" value="" style="group" vertex="1" connectable="0" parent="1">
          <mxGeometry x="-1050" y="390" width="440.5" height="200" as="geometry" />
        </mxCell>
        <mxCell id="1753" value="Quando um projeto finaliza?" style="rounded=1;whiteSpace=wrap;html=1;shadow=1;labelBackgroundColor=none;strokeColor=none;strokeWidth=3;fillColor=#e85642;fontFamily=Helvetica;fontSize=14;fontColor=#FFFFFF;align=center;spacing=5;fontStyle=1;arcSize=7;perimeterSpacing=2;" parent="CjOY5OqXpWPELGiu66PR-1891" vertex="1">
          <mxGeometry x="290.5" width="150" height="60" as="geometry" />
        </mxCell>
        <mxCell id="1754" value="Quando não existir mais a necessidade do projeto" style="rounded=1;whiteSpace=wrap;html=1;shadow=1;labelBackgroundColor=none;strokeColor=none;strokeWidth=3;fillColor=#f08e81;fontFamily=Helvetica;fontSize=14;fontColor=#FFFFFF;align=center;spacing=5;fontStyle=0;arcSize=7;perimeterSpacing=2;" parent="CjOY5OqXpWPELGiu66PR-1891" vertex="1">
          <mxGeometry x="270" y="140" width="150" height="60" as="geometry" />
        </mxCell>
        <mxCell id="1752" value="" style="edgeStyle=none;rounded=1;jumpStyle=none;html=1;shadow=1;labelBackgroundColor=none;startArrow=none;startFill=0;jettySize=auto;orthogonalLoop=1;strokeColor=#E85642;strokeWidth=3;fontFamily=Helvetica;fontSize=14;fontColor=#FFFFFF;spacing=5;fontStyle=1;fillColor=#b0e3e6;" parent="CjOY5OqXpWPELGiu66PR-1891" source="1753" target="1754" edge="1">
          <mxGeometry relative="1" as="geometry" />
        </mxCell>
        <mxCell id="1755" value="Quando os objetivos não poderão ser atingidos" style="rounded=1;whiteSpace=wrap;html=1;shadow=1;labelBackgroundColor=none;strokeColor=none;strokeWidth=3;fillColor=#f08e81;fontFamily=Helvetica;fontSize=14;fontColor=#FFFFFF;align=center;spacing=5;fontStyle=0;arcSize=7;perimeterSpacing=2;" parent="CjOY5OqXpWPELGiu66PR-1891" vertex="1">
          <mxGeometry x="100" y="119" width="150" height="60" as="geometry" />
        </mxCell>
        <mxCell id="1751" value="" style="edgeStyle=none;rounded=1;jumpStyle=none;html=1;shadow=1;labelBackgroundColor=none;startArrow=none;startFill=0;jettySize=auto;orthogonalLoop=1;strokeColor=#E85642;strokeWidth=3;fontFamily=Helvetica;fontSize=14;fontColor=#FFFFFF;spacing=5;fontStyle=1;fillColor=#b0e3e6;" parent="CjOY5OqXpWPELGiu66PR-1891" source="1753" target="1755" edge="1">
          <mxGeometry relative="1" as="geometry" />
        </mxCell>
        <mxCell id="1756" value="Quando os objetivos são atingidos" style="rounded=1;whiteSpace=wrap;html=1;shadow=1;labelBackgroundColor=none;strokeColor=none;strokeWidth=3;fillColor=#f08e81;fontFamily=Helvetica;fontSize=14;fontColor=#FFFFFF;align=center;spacing=5;fontStyle=0;arcSize=7;perimeterSpacing=2;" parent="CjOY5OqXpWPELGiu66PR-1891" vertex="1">
          <mxGeometry y="39" width="150" height="60" as="geometry" />
        </mxCell>
        <mxCell id="1750" value="" style="edgeStyle=none;rounded=1;jumpStyle=none;html=1;shadow=1;labelBackgroundColor=none;startArrow=none;startFill=0;jettySize=auto;orthogonalLoop=1;strokeColor=#E85642;strokeWidth=3;fontFamily=Helvetica;fontSize=14;fontColor=#FFFFFF;spacing=5;fontStyle=1;fillColor=#b0e3e6;" parent="CjOY5OqXpWPELGiu66PR-1891" source="1753" target="1756" edge="1">
          <mxGeometry relative="1" as="geometry" />
        </mxCell>
        <mxCell id="CjOY5OqXpWPELGiu66PR-1892" value="" style="group" vertex="1" connectable="0" parent="1">
          <mxGeometry x="-1000" y="-240" width="950" height="508" as="geometry" />
        </mxCell>
        <mxCell id="1760" value="O que é um Projeto?" style="rounded=1;whiteSpace=wrap;html=1;shadow=1;labelBackgroundColor=none;strokeColor=none;strokeWidth=3;fillColor=#64bbe2;fontFamily=Helvetica;fontSize=14;fontColor=#FFFFFF;align=center;spacing=5;fontStyle=1;arcSize=7;perimeterSpacing=2;" parent="CjOY5OqXpWPELGiu66PR-1892" vertex="1">
          <mxGeometry x="545" y="118.5" width="150" height="60" as="geometry" />
        </mxCell>
        <mxCell id="1761" value="O resultado é algo diferente em algum aspecto" style="rounded=1;whiteSpace=wrap;html=1;shadow=1;labelBackgroundColor=none;strokeColor=none;strokeWidth=3;fillColor=#64bbe2;fontFamily=Helvetica;fontSize=14;fontColor=#FFFFFF;align=center;spacing=5;arcSize=7;perimeterSpacing=2;" parent="CjOY5OqXpWPELGiu66PR-1892" vertex="1">
          <mxGeometry x="320" y="122.5" width="150" height="60" as="geometry" />
        </mxCell>
        <mxCell id="1759" value="" style="edgeStyle=none;rounded=0;jumpStyle=none;html=1;shadow=1;labelBackgroundColor=none;startArrow=none;startFill=0;endArrow=classic;endFill=1;jettySize=auto;orthogonalLoop=1;strokeColor=#1699D3;strokeWidth=3;fontFamily=Helvetica;fontSize=14;fontColor=#FFFFFF;spacing=5;" parent="CjOY5OqXpWPELGiu66PR-1892" source="1760" target="1761" edge="1">
          <mxGeometry relative="1" as="geometry" />
        </mxCell>
        <mxCell id="1762" value="Um esforço temporário com a finalidade de criar um Resultado Exclusivo" style="rounded=1;whiteSpace=wrap;html=1;shadow=1;labelBackgroundColor=none;strokeColor=none;strokeWidth=3;fillColor=#64bbe2;fontFamily=Helvetica;fontSize=14;fontColor=#FFFFFF;align=center;spacing=5;arcSize=7;perimeterSpacing=2;" parent="CjOY5OqXpWPELGiu66PR-1892" vertex="1">
          <mxGeometry x="545" y="268" width="150" height="83.5" as="geometry" />
        </mxCell>
        <mxCell id="1758" value="" style="edgeStyle=none;rounded=0;jumpStyle=none;html=1;shadow=1;labelBackgroundColor=none;startArrow=none;startFill=0;endArrow=classic;endFill=1;jettySize=auto;orthogonalLoop=1;strokeColor=#1699D3;strokeWidth=3;fontFamily=Helvetica;fontSize=14;fontColor=#FFFFFF;spacing=5;" parent="CjOY5OqXpWPELGiu66PR-1892" source="1760" target="1762" edge="1">
          <mxGeometry relative="1" as="geometry" />
        </mxCell>
        <mxCell id="1763" value="Tem início e fim determinados" style="rounded=1;whiteSpace=wrap;html=1;shadow=1;labelBackgroundColor=none;strokeColor=none;strokeWidth=3;fillColor=#64bbe2;fontFamily=Helvetica;fontSize=14;fontColor=#FFFFFF;align=center;spacing=5;arcSize=7;perimeterSpacing=2;" parent="CjOY5OqXpWPELGiu66PR-1892" vertex="1">
          <mxGeometry x="320" y="208" width="150" height="60" as="geometry" />
        </mxCell>
        <mxCell id="1757" value="" style="edgeStyle=none;rounded=0;jumpStyle=none;html=1;shadow=1;labelBackgroundColor=none;startArrow=none;startFill=0;endArrow=classic;endFill=1;jettySize=auto;orthogonalLoop=1;strokeColor=#1699D3;strokeWidth=3;fontFamily=Helvetica;fontSize=14;fontColor=#FFFFFF;spacing=5;" parent="CjOY5OqXpWPELGiu66PR-1892" source="1760" target="1763" edge="1">
          <mxGeometry relative="1" as="geometry" />
        </mxCell>
        <mxCell id="CjOY5OqXpWPELGiu66PR-1780" value="Não necessáriamente por um curto período" style="rounded=1;whiteSpace=wrap;html=1;shadow=1;labelBackgroundColor=none;strokeColor=none;strokeWidth=3;fillColor=#64bbe2;fontFamily=Helvetica;fontSize=14;fontColor=#FFFFFF;align=center;spacing=5;arcSize=7;perimeterSpacing=2;" vertex="1" parent="CjOY5OqXpWPELGiu66PR-1892">
          <mxGeometry x="460" y="438" width="150" height="70" as="geometry" />
        </mxCell>
        <mxCell id="CjOY5OqXpWPELGiu66PR-1782" value="Duração sempre é finita" style="rounded=1;whiteSpace=wrap;html=1;shadow=1;labelBackgroundColor=none;strokeColor=none;strokeWidth=3;fillColor=#64bbe2;fontFamily=Helvetica;fontSize=14;fontColor=#FFFFFF;align=center;spacing=5;arcSize=7;perimeterSpacing=2;" vertex="1" parent="CjOY5OqXpWPELGiu66PR-1892">
          <mxGeometry x="630" y="438" width="150" height="70" as="geometry" />
        </mxCell>
        <mxCell id="CjOY5OqXpWPELGiu66PR-1784" value="" style="edgeStyle=none;rounded=0;jumpStyle=none;html=1;shadow=1;labelBackgroundColor=none;startArrow=none;startFill=0;endArrow=classic;endFill=1;jettySize=auto;orthogonalLoop=1;strokeColor=#1699D3;strokeWidth=3;fontFamily=Helvetica;fontSize=14;fontColor=#FFFFFF;spacing=5;entryX=0.5;entryY=0;entryDx=0;entryDy=0;exitX=0.5;exitY=1;exitDx=0;exitDy=0;" edge="1" parent="CjOY5OqXpWPELGiu66PR-1892" source="1762" target="CjOY5OqXpWPELGiu66PR-1780">
          <mxGeometry relative="1" as="geometry">
            <mxPoint x="619" y="348" as="sourcePoint" />
            <mxPoint x="619.44" y="430" as="targetPoint" />
          </mxGeometry>
        </mxCell>
        <mxCell id="CjOY5OqXpWPELGiu66PR-1785" value="" style="edgeStyle=none;rounded=0;jumpStyle=none;html=1;shadow=1;labelBackgroundColor=none;startArrow=none;startFill=0;endArrow=classic;endFill=1;jettySize=auto;orthogonalLoop=1;strokeColor=#1699D3;strokeWidth=3;fontFamily=Helvetica;fontSize=14;fontColor=#FFFFFF;spacing=5;entryX=0.5;entryY=0;entryDx=0;entryDy=0;exitX=0.5;exitY=1;exitDx=0;exitDy=0;" edge="1" parent="CjOY5OqXpWPELGiu66PR-1892" source="1762" target="CjOY5OqXpWPELGiu66PR-1782">
          <mxGeometry relative="1" as="geometry">
            <mxPoint x="635" y="364" as="sourcePoint" />
            <mxPoint x="588" y="446" as="targetPoint" />
          </mxGeometry>
        </mxCell>
        <mxCell id="CjOY5OqXpWPELGiu66PR-1786" value="O resultado, na maioria dos casos, não é temporário" style="rounded=1;whiteSpace=wrap;html=1;shadow=1;labelBackgroundColor=none;strokeColor=none;strokeWidth=3;fillColor=#64bbe2;fontFamily=Helvetica;fontSize=14;fontColor=#FFFFFF;align=center;spacing=5;arcSize=7;perimeterSpacing=2;" vertex="1" parent="CjOY5OqXpWPELGiu66PR-1892">
          <mxGeometry x="800" y="168" width="150" height="83.5" as="geometry" />
        </mxCell>
        <mxCell id="CjOY5OqXpWPELGiu66PR-1787" value="" style="rounded=0;orthogonalLoop=1;jettySize=auto;html=1;labelBackgroundColor=none;fontSize=14;strokeColor=#1699D3;fontColor=#FFFFFF;shadow=1;startArrow=none;startFill=0;endFill=1;strokeWidth=3;spacing=5;" edge="1" parent="CjOY5OqXpWPELGiu66PR-1892" source="1762" target="CjOY5OqXpWPELGiu66PR-1786">
          <mxGeometry relative="1" as="geometry" />
        </mxCell>
        <mxCell id="CjOY5OqXpWPELGiu66PR-1788" value="" style="edgeStyle=none;shape=connector;rounded=0;jumpStyle=none;orthogonalLoop=1;jettySize=auto;html=1;shadow=1;labelBackgroundColor=none;strokeColor=#1699D3;strokeWidth=3;align=center;verticalAlign=middle;spacing=5;fontFamily=Helvetica;fontSize=14;fontColor=#FFFFFF;startArrow=none;startFill=0;endArrow=classic;endFill=1;" edge="1" parent="CjOY5OqXpWPELGiu66PR-1892" source="1762" target="CjOY5OqXpWPELGiu66PR-1786">
          <mxGeometry relative="1" as="geometry" />
        </mxCell>
        <mxCell id="CjOY5OqXpWPELGiu66PR-1790" value="Podem ter impactos duradouros" style="rounded=1;whiteSpace=wrap;html=1;shadow=1;labelBackgroundColor=none;strokeColor=none;strokeWidth=3;fillColor=#64bbe2;fontFamily=Helvetica;fontSize=14;fontColor=#FFFFFF;align=center;spacing=5;arcSize=7;perimeterSpacing=2;" vertex="1" parent="CjOY5OqXpWPELGiu66PR-1892">
          <mxGeometry x="800" y="268" width="150" height="83.5" as="geometry" />
        </mxCell>
        <mxCell id="CjOY5OqXpWPELGiu66PR-1793" value="&lt;div&gt;&lt;b&gt;Exemplos:&lt;/b&gt;&lt;/div&gt;&lt;ul&gt;&lt;li&gt;&lt;span style=&quot;background-color: initial;&quot;&gt;Desenvolvimento de um novo produto/serviço&lt;/span&gt;&lt;/li&gt;&lt;li&gt;&lt;span style=&quot;background-color: initial;&quot;&gt;Desenvolvimento de um novo modelo de veículo&lt;/span&gt;&lt;/li&gt;&lt;li&gt;&lt;span style=&quot;background-color: initial;&quot;&gt;Construção de um prédio&lt;/span&gt;&lt;/li&gt;&lt;li&gt;&lt;span style=&quot;background-color: initial;&quot;&gt;Uma campanha para um cargo político&lt;/span&gt;&lt;/li&gt;&lt;li&gt;&lt;span style=&quot;background-color: initial;&quot;&gt;Desenvolvimento ou aquisição de um sistema&lt;/span&gt;&lt;/li&gt;&lt;li&gt;&lt;span style=&quot;background-color: initial;&quot;&gt;Uma edição de um jornal ou revista&lt;/span&gt;&lt;/li&gt;&lt;li&gt;&lt;span style=&quot;background-color: initial;&quot;&gt;Desenvolvimento de um projeto de software&lt;/span&gt;&lt;/li&gt;&lt;/ul&gt;&lt;div&gt;&lt;br&gt;&lt;/div&gt;" style="rounded=1;whiteSpace=wrap;html=1;shadow=1;labelBackgroundColor=none;strokeColor=none;strokeWidth=3;fillColor=#64bbe2;fontFamily=Helvetica;fontSize=14;fontColor=#FFFFFF;align=left;spacing=5;arcSize=7;perimeterSpacing=2;" vertex="1" parent="CjOY5OqXpWPELGiu66PR-1892">
          <mxGeometry width="250" height="305" as="geometry" />
        </mxCell>
        <mxCell id="CjOY5OqXpWPELGiu66PR-1792" value="" style="edgeStyle=none;shape=connector;rounded=0;jumpStyle=none;orthogonalLoop=1;jettySize=auto;html=1;shadow=1;labelBackgroundColor=none;strokeColor=#1699D3;strokeWidth=3;align=center;verticalAlign=middle;spacing=5;fontFamily=Helvetica;fontSize=14;fontColor=#FFFFFF;startArrow=none;startFill=0;endArrow=classic;endFill=1;" edge="1" parent="CjOY5OqXpWPELGiu66PR-1892" source="1762" target="CjOY5OqXpWPELGiu66PR-1790">
          <mxGeometry relative="1" as="geometry" />
        </mxCell>
        <mxCell id="CjOY5OqXpWPELGiu66PR-1794" value="" style="edgeStyle=none;shape=connector;rounded=0;jumpStyle=none;orthogonalLoop=1;jettySize=auto;html=1;shadow=1;labelBackgroundColor=none;strokeColor=#1699D3;strokeWidth=3;align=center;verticalAlign=middle;spacing=5;fontFamily=Helvetica;fontSize=14;fontColor=#FFFFFF;startArrow=none;startFill=0;endArrow=classic;fillColor=#b0e3e6;endFill=1;" edge="1" parent="CjOY5OqXpWPELGiu66PR-1892" source="1761" target="CjOY5OqXpWPELGiu66PR-1793">
          <mxGeometry relative="1" as="geometry" />
        </mxCell>
        <mxCell id="1747" value="" style="edgeStyle=none;rounded=0;jumpStyle=none;html=1;shadow=1;labelBackgroundColor=none;startArrow=none;startFill=0;endArrow=classic;endFill=1;jettySize=auto;orthogonalLoop=1;strokeColor=#2F5B7C;strokeWidth=3;fontFamily=Helvetica;fontSize=16;fontColor=#23445D;spacing=5;" parent="1" source="1749" target="1760" edge="1">
          <mxGeometry relative="1" as="geometry" />
        </mxCell>
        <mxCell id="CjOY5OqXpWPELGiu66PR-1816" style="edgeStyle=none;shape=connector;rounded=1;jumpStyle=none;orthogonalLoop=1;jettySize=auto;html=1;shadow=1;labelBackgroundColor=none;strokeColor=#12AAB5;strokeWidth=3;align=center;verticalAlign=middle;spacing=5;fontFamily=Helvetica;fontSize=14;fontColor=#FFFFFF;startArrow=none;startFill=0;endArrow=classic;fillColor=#b0e3e6;" edge="1" parent="1" source="1763" target="1753">
          <mxGeometry relative="1" as="geometry" />
        </mxCell>
      </root>
    </mxGraphModel>
  </diagram>
</mxfile>
